<svg width="19" height="18" viewBox="0 0 19 18" fill="none" xmlns="http://www.w3.org/2000/svg">
<path d="M16.3172 6.83757L18.6428 9.06301C18.6942 9.11265 18.4448 9.18756 18.3734 9.18756H16.3172V17.7063C16.3172 17.7842 16.2862 17.8589 16.2311 17.914C16.176 17.9691 16.1013 18 16.0234 18H12.2047C12.1268 18 12.0521 17.9691 11.997 17.914C11.9419 17.8589 11.9109 17.7842 11.9109 17.7063V12.7125C11.9109 12.6346 11.88 12.5599 11.8249 12.5048C11.7698 12.4497 11.6951 12.4188 11.6172 12.4188H6.91721C6.83931 12.4188 6.76459 12.4497 6.7095 12.5048C6.65442 12.5599 6.62347 12.6346 6.62347 12.7125V17.7063C6.62347 17.7842 6.59252 17.8589 6.53743 17.914C6.48234 17.9691 6.40763 18 6.32972 18H2.51099C2.43309 18 2.35837 17.9691 2.30328 17.914C2.24819 17.8589 2.21725 17.7842 2.21725 17.7063V9.18756H0.16101C0.128937 9.18756 0.0975931 9.17799 0.0709982 9.16006C0.0444032 9.14214 0.0237697 9.11667 0.011744 9.08694C-0.000281777 9.05721 -0.00315151 9.02456 0.00350282 8.99319C0.0101571 8.96181 0.0260322 8.93314 0.0490918 8.91085L9.2672 0L13.3911 3.98645L13.3835 2.72892C13.383 2.65147 13.3979 2.5747 13.4272 2.50301C13.4565 2.43133 13.4997 2.36614 13.5543 2.31122C13.6089 2.25629 13.6738 2.2127 13.7453 2.18295C13.8169 2.15321 13.8935 2.1379 13.971 2.1379H15.7297C15.8855 2.1379 16.0349 2.1998 16.1451 2.30997C16.2553 2.42015 16.3172 2.56958 16.3172 2.72539V6.83757Z" fill="#90959B"/>
</svg>
