<svg width="24" height="24" viewBox="0 0 24 24" fill="none" xmlns="http://www.w3.org/2000/svg">
<path d="M18.3687 15.3114C17.0305 14.8271 14.8007 14.25 11.7812 14.25C8.76175 14.25 6.532 14.8271 5.19381 15.3114C4.08738 15.7114 3.34375 16.7734 3.34375 17.9552V20.4375C3.34375 20.748 3.59575 21 3.90625 21H19.6562C19.9667 21 20.2188 20.748 20.2188 20.4375V17.9552C20.2188 16.7734 19.4751 15.7114 18.3687 15.3114Z" fill="#90959B"/>
<path d="M11.7812 13.125C14.2624 13.125 16.2812 11.1062 16.2812 8.625V7.5C16.2812 5.01881 14.2624 3 11.7812 3C9.30006 3 7.28125 5.01881 7.28125 7.5V8.625C7.28125 11.1062 9.30006 13.125 11.7812 13.125Z" fill="#90959B"/>
</svg>
