<svg width="25" height="22" viewBox="0 0 25 22" fill="none" xmlns="http://www.w3.org/2000/svg">
<path fill-rule="evenodd" clip-rule="evenodd" d="M3.82773 0.301758C3.36641 0.763086 3.01191 2.1207 3.25293 2.50273C3.43223 2.78691 6.9623 3.9709 18.5059 7.61816L21.0938 8.43594V14.8322C21.0938 22.3033 20.9719 21.875 23.0971 21.875C24.0086 21.875 24.476 21.7852 24.6932 21.5682C24.9613 21.2998 25 20.3219 25 13.7947C25 8.24785 24.9396 6.26777 24.7656 6.09375C24.6367 5.96484 24.1117 5.85938 23.5988 5.85938C22.935 5.85938 20.0262 5.01582 13.4959 2.92969C8.45215 1.31836 4.28125 0 4.22734 0C4.17344 0 3.99375 0.135742 3.82773 0.301758ZM5.79004 1.27305C5.96621 1.73184 5.46504 2.76211 5.09961 2.69258C4.70996 2.61836 4.59082 1.9127 4.87734 1.37734C5.1293 0.906836 5.62773 0.849805 5.79004 1.27305ZM8.71973 2.24961C8.8959 2.7084 8.39473 3.73867 8.0293 3.66914C7.63965 3.59492 7.52051 2.88926 7.80703 2.35391C8.05898 1.8834 8.55742 1.82637 8.71973 2.24961ZM11.7188 3.39629C11.7188 3.97969 11.0807 4.79902 10.7738 4.60938C10.2408 4.27988 10.6918 2.92969 11.335 2.92969C11.6094 2.92969 11.7188 3.0627 11.7188 3.39629ZM14.6146 4.27461C14.7027 4.875 14.1467 5.68398 13.7504 5.53203C13.5205 5.44375 13.4697 5.25859 13.5566 4.82441C13.7764 3.7252 14.4805 3.35938 14.6146 4.27461ZM17.5375 5.28867C17.615 5.93105 17.1459 6.54609 16.7068 6.37754C16.4449 6.27715 16.3963 6.12109 16.4988 5.71211C16.768 4.64004 17.427 4.37148 17.5375 5.28867ZM20.5078 6.2127C20.5078 6.95293 20.0734 7.52187 19.6365 7.3541C19.3746 7.25371 19.326 7.09766 19.4285 6.68867C19.7027 5.59629 20.5078 5.24121 20.5078 6.2127ZM4.35801 7.24648C3.5752 7.47305 3.0748 8.10469 2.50156 9.59043L2.05078 10.7586L1.31152 10.6344C0.386133 10.4789 0 10.7725 0 11.6311C0 12.2533 0.322852 12.7703 0.813477 12.934C0.992188 12.9936 0.981445 13.2414 0.768164 13.9768C0.577539 14.6334 0.488281 15.9283 0.488281 18.033C0.488281 21.5902 0.529883 21.6797 2.18574 21.6797C3.3959 21.6797 3.90625 21.2162 3.90625 20.1172V19.3359H9.54492H15.1836L15.2867 20.2518C15.4127 21.3695 15.7832 21.6797 16.9922 21.6797C18.5535 21.6797 18.643 21.5158 18.7146 18.5221C18.7582 16.7043 18.6854 15.4795 18.4736 14.4664C18.3068 13.668 18.1908 13.0088 18.216 13.0016C18.7514 12.8471 19.052 12.4512 19.1045 11.8318C19.1879 10.8459 18.8693 10.5139 17.9098 10.5861L17.1332 10.6445L16.6232 9.45332C15.592 7.04434 15.5396 7.02637 9.62539 7.04883C7.0707 7.05859 4.70039 7.14746 4.35801 7.24648ZM14.7268 8.44727C15.1805 9.15273 16.4062 12.2453 16.4062 12.6842C16.4062 13.0818 16.3379 13.0859 9.66191 13.0859C3.77051 13.0859 2.90293 13.0479 2.80215 12.7854C2.65762 12.4088 4.2082 8.58281 4.63945 8.25195C4.87383 8.07207 6.20605 8.00781 9.70078 8.00781C14.4059 8.00781 14.4465 8.01133 14.7268 8.44727ZM6.01641 16.3648L6.07559 17.3977L4.25859 17.3414L2.44141 17.2852L2.37988 16.5391C2.28418 15.3754 2.54453 15.2107 4.37578 15.2758L5.95703 15.332L6.01641 16.3648ZM16.5902 15.5137C16.7178 15.6674 16.7945 16.1287 16.7607 16.5391L16.6992 17.2852L14.8926 17.3414L13.0859 17.3975V16.4461C13.0859 15.9229 13.1445 15.4361 13.2162 15.3646C13.2877 15.293 14.024 15.2344 14.8523 15.2344C15.9201 15.2344 16.426 15.3156 16.5902 15.5137Z" fill="#90959B"/>
</svg>
